<?xml version="1.0" standalone="no"?>
<!DOCTYPE svg PUBLIC "-//W3C//DTD SVG 20010904//EN"
 "http://www.w3.org/TR/2001/REC-SVG-20010904/DTD/svg10.dtd">
<svg version="1.0" xmlns="http://www.w3.org/2000/svg"
 width="2000.000000pt" height="2000.000000pt" viewBox="0 0 2000.000000 2000.000000"
 preserveAspectRatio="xMidYMid meet">
<metadata>
Created by potrace 1.15, written by Peter Selinger 2001-2017
</metadata>
<g transform="translate(0.000000,2000.000000) scale(0.100000,-0.100000)"
fill="#000000" stroke="none">
<path d="M5608 15883 l-4548 -3 0 -995 0 -995 1890 0 1890 0 0 -4905 0 -4905
1150 0 1150 0 0 4905 0 4905 1505 0 1505 0 0 -4905 0 -4905 1155 0 1155 0 0
1980 0 1979 1543 4 c1639 4 1592 3 1882 52 566 97 1111 350 1610 749 141 112
421 396 549 556 495 621 805 1392 881 2200 21 219 16 649 -9 840 -140 1038
-703 2039 -1505 2679 -494 393 -1055 652 -1625 751 -118 20 -136 20 -2875 18
-1516 -2 -4802 -4 -7303 -5z m9713 -2020 c491 -122 829 -402 1059 -878 99
-205 159 -401 197 -645 24 -159 24 -572 0 -750 -79 -566 -304 -987 -680 -1269
-142 -106 -307 -180 -507 -227 -70 -17 -176 -18 -1502 -21 l-1428 -4 0 1911 0
1911 1388 -4 c1376 -3 1388 -3 1473 -24z"/>
</g>
</svg>
